# xmcd CD database file
#
# Track frame offsets:
#	150
#	17154
#	38257
#	53001
#	72066
#	89336
#
# Disc length: 1426 seconds
#
# Revision: 0
# Processed by: cddbd v1.5.1PL2 Copyright (c) Steve Scherf et al.
# Submitted via: CDex 1.51
#
DISCID=3c059006
DTITLE=Gag blues-rock - Le rock'n roll assis
DYEAR=2005
DGENRE=Blues
TTITLE0=01- Change it
TTITLE1=02- Tightrope
TTITLE2=03- Rock'n roll assis
TTITLE3=04- All along the watchtower
TTITLE4=05- Fire
TTITLE5=06- Whole lotta love
EXTD=YEAR: 2005
EXTT0=
EXTT1=
EXTT2=
EXTT3=
EXTT4=
EXTT5=
PLAYORDER=
